<svg width="185" height="24" viewBox="0 0 185 24" fill="none" xmlns="http://www.w3.org/2000/svg">
<path fill-rule="evenodd" clip-rule="evenodd" d="M18.1779 6.87539C19.8335 5.39359 17.1471 4.86152 17.1471 4.86152V4.80831C20.2817 4.79501 20.1999 7.80385 16.7727 8.74295C12.5773 9.9006 12.0952 8.17968 11.8663 7.36254C11.8374 7.25953 11.8126 7.17089 11.7849 7.10418C11.6422 6.74136 11.4812 6.38617 11.3024 6.04005C10.8041 5.11957 7.88839 0.889632 1.37408 3.81601L0.802007 4.08204C3.87857 -1.92501 11.1811 -1.33707 12.0748 6.07729C12.378 8.59929 17.1919 7.75597 18.1779 6.87539ZM0.0579792 10.4349C5.95803 7.50856 9.78594 8.08851 11.3361 10.0146C11.6555 10.4104 11.7861 10.7623 11.8872 11.0346C11.9838 11.2949 12.0534 11.4824 12.2351 11.5656C15.3828 13.05 21.101 10.0678 20.8373 6.97915C20.8156 6.88145 20.7714 6.79029 20.7082 6.71312C20.535 6.51405 20.3492 6.32655 20.1519 6.15179C21.2512 10.2806 13.1604 11.3501 11.9187 9.44263C11.7853 9.23771 11.6223 8.83709 11.4733 8.47074L11.4733 8.47073L11.4732 8.47071C11.3514 8.17122 11.2389 7.89465 11.1595 7.76661C10.3106 6.3992 6.57756 3.80803 0.0975237 7.07226C-0.017591 8.18957 -0.030828 9.31518 0.0579792 10.4349ZM11.4426 14.5851C8.95131 12.5632 2.96162 15.737 1.34293 17.0858C0.836762 15.439 0.48877 13.6273 0.48877 13.6273C4.27187 11.4086 8.97767 10.1689 11.3899 11.7651C11.7212 11.9875 11.821 12.3227 11.9105 12.6235C11.9977 12.9162 12.0751 13.1763 12.3469 13.2682C15.9823 14.5026 21.1917 11.3394 21.4553 8.0087C21.4553 8.0087 21.8402 8.86267 21.7769 9.1287C20.4219 14.8458 12.4734 16.426 11.9461 15.5907C11.8738 15.4756 11.8387 15.3485 11.8027 15.2182C11.7431 15.0022 11.6811 14.7776 11.4426 14.5851ZM4.01115 23.9855L4.00612 23.992L4.0193 24L4.01115 23.9855ZM4.01115 23.9855C4.6066 23.2186 5.27607 22.5132 6.00971 21.8797C8.03439 20.3021 10.937 18.6102 11.3667 20.0787C11.3867 20.2243 11.3867 20.372 11.3667 20.5176C11.3401 20.5981 11.3604 20.6869 11.4193 20.7475C11.4783 20.8081 11.5658 20.8303 11.6461 20.8049C19.4311 18.6527 22.0015 14.1381 21.9277 10.6238C20.7704 15.0347 16.4864 17.2747 12.1602 17.8067C11.945 17.8067 11.9375 17.6331 11.9275 17.4058C11.9161 17.1456 11.9017 16.8151 11.5697 16.5936C9.65836 15.3433 3.46568 19.1741 2.55615 20.5416C2.55615 20.5416 3.65673 23.3495 4.01115 23.9855ZM183.136 18.939C183.035 19.0386 182.955 19.1569 182.899 19.2875C182.84 19.4234 182.811 19.5702 182.812 19.7184C182.81 19.8693 182.84 20.0188 182.899 20.1574C182.955 20.2879 183.035 20.4063 183.136 20.5059C183.236 20.6056 183.354 20.6843 183.484 20.7373C183.619 20.793 183.763 20.821 183.908 20.8198C184.053 20.8213 184.197 20.7933 184.33 20.7373C184.46 20.6847 184.577 20.6059 184.676 20.5059C184.775 20.4056 184.856 20.2874 184.913 20.1574C184.972 20.0188 185.002 19.8693 185 19.7184C185.001 19.5702 184.971 19.4234 184.913 19.2875C184.856 19.1575 184.775 19.0393 184.676 18.939C184.576 18.8415 184.459 18.7639 184.33 18.7102C184.197 18.6534 184.053 18.6245 183.908 18.625C183.763 18.6248 183.619 18.6537 183.484 18.7102C183.355 18.7645 183.237 18.842 183.136 18.939ZM183.264 20.3835C183.183 20.2966 183.119 20.1956 183.074 20.0856V20.1015C183.028 19.982 183.005 19.8547 183.006 19.7264C183.005 19.6008 183.028 19.4762 183.074 19.3593C183.119 19.2509 183.184 19.1517 183.264 19.0667C183.345 18.9828 183.442 18.9159 183.549 18.8698C183.662 18.8212 183.784 18.7968 183.907 18.798C184.029 18.7971 184.149 18.8215 184.26 18.8698C184.367 18.9153 184.463 18.9823 184.543 19.0667C184.625 19.1503 184.689 19.2498 184.732 19.3593C184.777 19.4708 184.801 19.59 184.801 19.7105C184.803 19.8389 184.78 19.9664 184.732 20.0856C184.6 20.4287 184.272 20.6541 183.907 20.6522C183.784 20.6534 183.662 20.6289 183.549 20.5804C183.442 20.5333 183.346 20.4665 183.264 20.3835ZM183.974 19.0933C184.093 19.0845 184.211 19.1163 184.309 19.1837C184.382 19.2517 184.422 19.3493 184.417 19.4497C184.429 19.5485 184.393 19.6471 184.322 19.7158C184.254 19.7708 184.172 19.8042 184.085 19.8116L184.449 20.3755H184.235L183.89 19.8116H183.682V20.3622H183.494V19.0933H183.974ZM184.022 19.6599H183.888L183.687 19.6706V19.2662H183.951H184.051C184.082 19.2702 184.112 19.2792 184.141 19.2928C184.167 19.3071 184.189 19.3271 184.207 19.3513C184.224 19.383 184.232 19.4189 184.23 19.4551C184.232 19.4961 184.222 19.5368 184.201 19.5721C184.184 19.5999 184.158 19.6214 184.127 19.6333C184.095 19.6495 184.059 19.6585 184.022 19.6599ZM155.052 4.46139C155.052 3.49036 154.918 3.35469 154.277 3.27488L153.315 3.19507V2.46081L157.322 1.84095L157.509 2.00323V18.5239C157.509 19.7903 157.589 19.8541 159.379 19.9791V20.8145H153.178V19.9791C154.965 19.8461 155.047 19.7903 155.047 18.5239L155.052 4.46139ZM115.333 18.3351V12.1365H123.932V18.3351C123.932 19.7637 123.879 19.8195 121.689 19.9791V20.8145H128.862V19.9791C126.698 19.8195 126.616 19.7637 126.616 18.3351V5.66918C126.616 4.24058 126.698 4.18471 128.862 4.0517V3.21635H121.702V4.0517C123.893 4.18471 123.945 4.24058 123.945 5.66918V11.1122H115.346V5.66918C115.346 4.26718 115.425 4.18471 117.589 4.0517V3.21635H110.418V4.0517C112.609 4.18471 112.662 4.24058 112.662 5.66918V18.3351C112.662 19.7637 112.609 19.8195 110.418 19.9791V20.8145H117.576V19.9791C115.385 19.8195 115.333 19.7637 115.333 18.3351ZM26.4224 20.8198V20.0829C28.6342 19.9313 28.6843 19.8807 28.6843 18.4601V5.62927C28.6843 4.20865 28.6342 4.1581 26.4224 4.00647V3.26955H33.6854C35.6468 3.24561 37.1548 3.53559 38.1328 4.18471C39.1109 4.83383 39.6909 5.90861 39.6909 7.30263C39.6909 9.25532 38.3095 10.7265 35.9473 11.208V11.2586C38.3859 11.5884 40.495 12.908 40.495 15.9008C40.495 19.4258 38.0326 20.8198 34.2126 20.8198H26.4224ZM31.1682 10.9287H32.8528C35.4654 10.9287 37.0471 9.93903 37.0471 7.45427C37.0471 4.84448 35.0119 4.13151 33.2034 4.15811C31.242 4.18471 31.1682 4.33635 31.1682 5.42709V10.9287ZM33.5801 19.9313C31.5686 19.9313 31.1679 19.5508 31.1679 17.9786L31.1653 11.8199H32.9738C36.0899 11.8199 37.7982 13.3895 37.7982 16.0764C37.7982 19.1199 35.7419 19.9313 33.5801 19.9313ZM52.6095 19.7796C52.1587 19.6785 51.7316 19.1943 51.7316 17.5981V11.4634C51.7316 9.99223 51.4047 8.09008 47.6084 8.09008C44.7691 8.09008 42.5335 9.58519 42.5335 10.9792C42.5335 11.7906 43.4641 12.171 43.9413 12.171C44.4686 12.171 44.6188 11.8917 44.7454 11.4634C45.2964 9.58519 46.3509 8.97598 47.3316 8.97598C48.3123 8.97598 49.4696 9.4841 49.4696 11.5139V12.5781C48.9608 13.1109 47.2739 13.6264 45.598 14.1386L45.598 14.1386C45.1988 14.2606 44.8003 14.3824 44.4185 14.5042C42.6073 15.0628 42.0801 16.3318 42.0801 17.5236C42.0801 19.4258 43.327 21.1231 45.6997 21.1231C47.2564 21.0726 48.6499 20.1351 49.4412 19.6028L49.4433 19.6014C49.7965 20.5405 50.1973 21.1231 51.0778 21.1231C52.1102 21.0955 53.1235 20.8356 54.0436 20.3622L53.8907 19.7557C53.4697 19.8518 53.0337 19.8599 52.6095 19.7796ZM46.8648 14.7129C47.8291 14.353 48.9679 13.928 49.4692 13.6076L49.4613 17.1831C49.4613 19.2369 47.9032 19.769 46.9225 19.769C45.3645 19.769 44.6105 18.6543 44.6105 17.1565C44.6105 15.9647 45.1641 15.3555 46.5693 14.8234L46.8648 14.7129ZM68.5423 20.0829C66.7575 19.9446 66.6573 19.9073 66.6573 18.6144L66.6547 12.1152C66.6547 9.55594 65.2759 8.08477 62.9639 8.08477C61.3024 8.08477 60.2039 8.81193 58.8789 9.68904C58.7196 9.79448 58.5571 9.90208 58.3899 10.0109L58.0366 8.08477L54.293 8.71793V9.36439L55.2474 9.49209C55.9012 9.59318 56.0515 9.72088 56.0515 10.6334V18.6144C56.0515 19.9073 55.9776 19.9579 54.1665 20.0829V20.8198H60.2906V20.0829C58.5059 19.9446 58.4057 19.9073 58.4057 18.6144V12.6792C58.3724 12.1993 58.4633 11.719 58.6693 11.2852C59.2675 10.1777 60.4091 9.47975 61.6589 9.4575C63.3646 9.4575 64.2952 10.4232 64.2952 12.6286V18.6144C64.2952 19.9073 64.2187 19.9579 62.4102 20.0829V20.8198H68.5423V20.0829ZM81.5836 18.6144C81.5836 19.9073 81.6838 19.9446 83.4685 20.0829V20.8198H77.3365V20.0829C79.1476 19.9579 79.2215 19.9073 79.2215 18.6144V12.6286C79.2215 10.4232 78.2908 9.4575 76.5852 9.4575C75.3354 9.47975 74.1938 10.1777 73.5956 11.2852C73.3942 11.7202 73.3079 12.2005 73.3451 12.6792V18.6144C73.3451 19.9073 73.4453 19.9446 75.2301 20.0829V20.8198H69.0928V20.0829C70.9039 19.9579 70.9777 19.9073 70.9777 18.6144V10.6334C70.9777 9.72088 70.8275 9.59318 70.1737 9.49209L69.2193 9.36439V8.71793L72.9629 8.08477L73.3161 10.0109C73.4833 9.90208 73.6459 9.79448 73.8052 9.68904C75.1301 8.81193 76.2286 8.08477 77.8901 8.08477C80.2022 8.08477 81.5809 9.55594 81.5809 12.1152L81.5836 18.6144ZM87.0606 14.1503C87.0105 16.7867 87.638 19.8302 90.7514 19.8302C92.7392 19.8302 93.6936 18.6144 94.3975 17.1432L95.1514 17.5476C94.4713 19.5508 93.0424 21.0991 90.2505 21.1231C86.1537 21.1736 84.4507 18.7288 84.4507 14.709C84.4507 10.9047 86.3093 8.09008 90.2295 8.09008C94.8298 8.09008 95.307 11.6895 95.307 13.1846C95.307 14.0226 94.8298 14.1503 94.3026 14.1503H87.0606ZM91.8354 13.1846C92.5393 13.1846 92.6896 12.8574 92.6896 12.3865C92.6896 11.3969 92.4259 8.98661 90.077 8.98661C87.4644 8.98661 87.0874 12.1577 87.0874 13.1953L91.8354 13.1846ZM100.558 10.1173C102.216 8.6461 102.97 8.09009 103.875 8.09009C104.855 8.09009 105.209 8.7738 105.209 9.33247C105.209 10.1173 104.655 10.7531 104.051 10.7531C103.875 10.7535 103.702 10.7096 103.548 10.6254C102.82 10.2184 102.393 10.0667 101.99 10.0667C101.412 10.0667 100.558 10.7265 100.558 12.6792V18.6144C100.558 19.9073 100.708 19.9446 102.947 20.0829V20.8198H96.311V20.0829C98.0695 19.9579 98.196 19.9073 98.196 18.6144V10.6334C98.196 9.72088 98.0457 9.59318 97.3919 9.49209L96.4376 9.36439V8.71793L100.258 8.08477L100.558 10.1173ZM135.37 19.7903C132.267 19.7903 131.627 16.8532 131.679 14.2381H138.847C139.419 14.2381 139.902 14.0493 139.902 13.2139C139.902 11.6789 139.393 8.06615 134.798 8.06615C130.846 8.06615 128.977 10.8967 128.977 14.6984C128.977 18.6862 130.58 21.1391 134.798 21.1391C137.603 21.1391 139.045 19.5748 139.741 17.5822L138.95 17.1485C138.254 18.6064 137.347 19.7903 135.37 19.7903ZM137.234 12.3759C137.234 12.8787 137.074 13.174 136.38 13.174L131.706 13.1846C131.706 12.1072 132.08 9.00791 134.672 9.00791C136.942 9.00791 137.234 11.3783 137.234 12.3759ZM151.07 17.4731C151.07 19.0693 151.471 19.495 151.924 19.6306C152.252 19.696 152.589 19.6942 152.916 19.6253L153.021 20.4048C152.209 20.8776 151.288 21.1288 150.35 21.1337C149.47 21.1337 149.016 20.6496 148.695 19.6253L148.583 19.7006C147.779 20.2443 146.462 21.1337 144.983 21.1337C142.61 21.1337 141.35 19.4364 141.35 17.5476C141.35 16.3371 141.877 15.015 143.702 14.4483C144.008 14.3522 144.324 14.2554 144.643 14.158L144.645 14.1575L144.646 14.1572C146.381 13.6268 148.179 13.0773 148.711 12.5089V11.6257C148.711 9.63043 147.725 9.01057 146.494 9.01057C145.479 9.01057 144.598 9.54264 144.036 11.4368C143.931 11.8944 143.717 12.1897 143.182 12.1897C142.647 12.1897 141.793 11.7853 141.793 10.9766C141.793 9.57722 143.823 8.06615 146.71 8.06615C150.543 8.06615 151.07 10.0481 151.07 11.5432V17.4731ZM148.718 13.6183C148.159 13.9694 146.872 14.4536 145.86 14.8314C144.5 15.3635 143.964 15.9913 143.964 17.1778C143.964 18.6596 144.739 19.7371 146.261 19.7371C147.223 19.7371 148.718 19.2529 148.718 17.231V13.6183ZM164.026 17.1778V9.51603H167.203V8.39071H164.023V5.1983H163.248L161.666 8.39071H159.768V9.51603H161.569V18.2153C161.569 20.7746 163.464 21.1258 164.374 21.1258C165.592 21.1258 166.521 20.6452 167.343 20.1408V20.8145H173.486V19.9791C171.801 19.8541 171.641 19.7637 171.641 18.5239V12.7031C171.641 12.0833 171.667 11.7055 171.854 11.3543C172.436 10.2429 173.572 9.54015 174.817 9.52135C176.502 9.52135 177.435 10.4392 177.435 12.5674V18.5239C177.435 19.7637 177.277 19.8461 175.566 19.9791V20.8145H181.738V19.9791C180.027 19.8727 179.866 19.7637 179.866 18.5239V12.1099C179.866 9.54796 178.506 8.06615 176.154 8.06615C174.443 8.06615 173.359 8.80032 171.946 9.75732L171.944 9.75872C171.836 9.83179 171.726 9.90616 171.614 9.98159V1.97663L171.427 1.84095L167.446 2.46081V3.18975L168.409 3.32276C169.049 3.43184 169.184 3.56485 169.184 4.48267L169.189 18.5239C169.189 19.7396 169.108 19.8425 167.444 19.9715L167.258 19.3593C166.758 19.5988 166.208 19.7103 165.655 19.6838C164.801 19.6838 164.026 19.0906 164.026 17.1778Z" fill="#00205B"/>
</svg>
