<svg width="24" height="24" viewBox="0 0 24 24" xmlns="http://www.w3.org/2000/svg">
<path d="M7.18387 14.005C7.10639 14.4963 6.68467 14.8728 6.17141 14.8728C5.65816 14.8728 5.23644 14.4963 5.15896 14.005C3.43061 13.8946 2.05713 12.457 2.05713 10.7013V10.5871C2.05713 10.019 2.51759 9.55851 3.0857 9.55851C3.65381 9.55851 4.11427 10.019 4.11427 10.5871V10.7013C4.11427 11.3163 4.55861 11.8272 5.14284 11.9355V8.51246L4.02513 8.016C2.82959 7.48423 2.05713 6.29589 2.05713 4.9872C2.05713 3.23589 3.42341 1.80103 5.14593 1.68411C5.16239 1.1304 5.61359 0.685715 6.17141 0.685715C6.72924 0.685715 7.18044 1.1304 7.1969 1.68411C8.91941 1.80103 10.2857 3.23589 10.2857 4.9872V5.10137C10.2857 5.66949 9.82524 6.12994 9.25713 6.12994C8.68901 6.12994 8.22856 5.66949 8.22856 5.10137V4.9872C8.22856 4.37211 7.78421 3.86126 7.19999 3.75326V7.176L8.3177 7.67246C9.51324 8.20423 10.2857 9.39291 10.2857 10.7013C10.2857 12.457 8.91221 13.8946 7.18387 14.005ZM5.14284 6.2616L4.86101 6.13646C4.40707 5.93486 4.11427 5.48331 4.11427 4.9872C4.11427 4.37211 4.55861 3.86126 5.14284 3.75326V6.2616ZM7.19999 9.42686L7.48181 9.55234C7.93576 9.75394 8.22856 10.2051 8.22856 10.7013C8.22856 11.3163 7.78421 11.8272 7.19999 11.9355V9.42686ZM20.2286 1.6728H13.0286C12.4604 1.6728 12 2.13326 12 2.70137C12 3.26949 12.4604 3.72994 13.0286 3.72994H19.8857V20.82L18.1327 20.2395C17.9156 20.1675 17.6815 20.1699 17.4662 20.2461L14.8995 21.1536L12.3332 20.2461C12.1114 20.1679 11.869 20.1679 11.6475 20.2461L9.08056 21.1536L7.19999 20.4885V17.7871C7.19999 17.219 6.73953 16.7585 6.17141 16.7585C5.6033 16.7585 5.14284 17.219 5.14284 17.7871V21.2157C5.14284 21.6518 5.41781 22.0402 5.82856 22.1853L8.7377 23.2138C8.95953 23.2923 9.20193 23.2923 9.42341 23.2138L11.9904 22.3066L14.5567 23.2138C14.7785 23.2923 15.0209 23.2923 15.2424 23.2138L17.82 22.3029L20.591 23.2207C20.6966 23.2557 20.8059 23.2728 20.9143 23.2728C21.1279 23.2728 21.3387 23.2063 21.5167 23.0781C21.7841 22.8847 21.9428 22.5744 21.9428 22.2442V3.38709C21.9428 2.44183 21.1738 1.6728 20.2286 1.6728ZM18.1714 7.18149C18.1714 7.7496 17.711 8.21006 17.1428 8.21006H14.0571C13.489 8.21006 13.0286 7.7496 13.0286 7.18149C13.0286 6.61303 13.489 6.15291 14.0571 6.15291H17.1428C17.711 6.15291 18.1714 6.61303 18.1714 7.18149ZM11.6345 17.0983H17.1428C17.711 17.0983 18.1714 16.6382 18.1714 16.0697C18.1714 15.5016 17.711 15.0411 17.1428 15.0411H11.6345C11.066 15.0411 10.6059 15.5016 10.6059 16.0697C10.6059 16.6382 11.066 17.0983 11.6345 17.0983ZM13.0286 12.6542C12.4604 12.6542 12 12.1937 12 11.6256C12 11.0571 12.4604 10.597 13.0286 10.597H17.1428C17.711 10.597 18.1714 11.0571 18.1714 11.6256C18.1714 12.1937 17.711 12.6542 17.1428 12.6542H13.0286Z" fill="#00205B"/>
</svg>
