<svg width="24" height="24" viewBox="0 0 24 24" xmlns="http://www.w3.org/2000/svg">
<path d="M20.2284 3.42857C19.6603 3.42857 19.1998 3.88903 19.1998 4.45714V21.2571H4.79982V5.48571H6.5141C6.5141 6.05383 6.97456 6.51429 7.54268 6.51429C8.11079 6.51429 8.57125 6.05383 8.57125 5.48571V4.11429H10.3202C10.8091 4.11429 11.2304 3.76971 11.3278 3.29074C11.3926 2.97326 11.6751 2.74286 11.9998 2.74286C12.3245 2.74286 12.607 2.97326 12.6718 3.29074C12.7692 3.76971 13.1906 4.11429 13.6795 4.11429H15.4284V6.17143H10.625C10.0568 6.17143 9.59639 6.63189 9.59639 7.2C9.59639 7.76811 10.0568 8.22857 10.625 8.22857H16.457C17.0251 8.22857 17.4855 7.76811 17.4855 7.2V3.77143C17.4855 2.82617 16.7165 2.05714 15.7712 2.05714H14.3744C13.8941 1.22949 12.9965 0.685715 11.9998 0.685715C11.0031 0.685715 10.1055 1.22949 9.62519 2.05714H8.22839C7.40073 2.05714 6.70782 2.6472 6.54908 3.42857H4.45696C3.5117 3.42857 2.74268 4.1976 2.74268 5.14286V21.6C2.74268 22.5453 3.5117 23.3143 4.45696 23.3143H19.5427C20.4879 23.3143 21.257 22.5453 21.257 21.6V4.45714C21.257 3.88903 20.7965 3.42857 20.2284 3.42857ZM7.54268 12H11.657C12.2251 12 12.6855 11.5395 12.6855 10.9714C12.6855 10.4033 12.2251 9.94286 11.657 9.94286H7.54268C6.97456 9.94286 6.5141 10.4033 6.5141 10.9714C6.5141 11.5395 6.97456 12 7.54268 12ZM16.457 9.94286H15.4284C14.8603 9.94286 14.3998 10.4033 14.3998 10.9714C14.3998 11.5395 14.8603 12 15.4284 12H16.457C17.0251 12 17.4855 11.5395 17.4855 10.9714C17.4855 10.4033 17.0251 9.94286 16.457 9.94286ZM16.457 13.7143C17.0251 13.7143 17.4855 14.1747 17.4855 14.7429C17.4855 15.311 17.0251 15.7714 16.457 15.7714H7.54268C6.97456 15.7714 6.5141 15.311 6.5141 14.7429C6.5141 14.1747 6.97456 13.7143 7.54268 13.7143H16.457ZM6.5141 18.5143C6.5141 17.9462 6.97456 17.4857 7.54268 17.4857H16.457C17.0251 17.4857 17.4855 17.9462 17.4855 18.5143C17.4855 19.0824 17.0251 19.5429 16.457 19.5429H7.54268C6.97456 19.5429 6.5141 19.0824 6.5141 18.5143Z" fill="#00205B"/>
</svg>
