<svg width="24" height="24" viewBox="0 0 24 24" xmlns="http://www.w3.org/2000/svg">
<path d="M17.1428 5.48571C17.1428 8.32182 14.8357 10.6286 11.9999 10.6286C9.16379 10.6286 6.85705 8.32182 6.85705 5.48571C6.85705 2.64994 9.16379 0.34285 11.9999 0.34285C14.8357 0.34285 17.1428 2.64994 17.1428 5.48571ZM11.9999 2.39999C13.7015 2.39999 15.0856 3.78411 15.0856 5.48571C15.0856 7.18731 13.7015 8.57142 11.9999 8.57142C10.2983 8.57142 8.91419 7.18731 8.91419 5.48571C8.91419 3.78411 10.2983 2.39999 11.9999 2.39999ZM17.3684 10.7318L17.2662 10.6937C16.9278 10.5675 16.5479 10.6272 16.2654 10.8524C15.0404 11.8275 13.5654 12.3428 11.9999 12.3428C10.4341 12.3428 8.95944 11.8275 7.73407 10.8524C7.45156 10.6272 7.07202 10.5675 6.73327 10.6937L6.6311 10.7321C4.10047 11.6791 2.3999 14.1308 2.3999 16.8333V19.8857C2.3999 20.4538 2.86036 20.9143 3.42847 20.9143C3.99659 20.9143 4.45705 20.4538 4.45705 19.8857V16.8333C4.45705 15.8431 4.79236 14.9033 5.36836 14.1432C5.56859 14.9708 5.9207 15.7587 6.42333 16.501C6.20047 16.9094 6.11339 17.3952 6.2111 17.8869C6.43259 19.0011 7.51567 19.7246 8.62962 19.5031C9.7439 19.2816 10.4673 18.1985 10.2458 17.0846C10.0473 16.0892 9.16173 15.4076 8.18082 15.4313C7.65145 14.677 7.34253 13.8823 7.25167 13.0231C8.6711 13.9231 10.2925 14.4 11.9999 14.4C13.707 14.4 15.3287 13.9231 16.7478 13.0231C16.6857 13.6145 16.5205 14.1758 16.2513 14.7137C15.605 14.3777 14.8206 14.4788 14.2823 14.9931L12.3956 16.7976C12.1415 17.0407 12.029 17.3966 12.0976 17.7411L12.1919 18.2167C12.3026 18.7742 12.8437 19.1366 13.4012 19.0251C13.9316 18.9202 14.285 18.4244 14.2223 17.8968L15.5053 16.6697L16.4142 17.2769L15.7717 18.9315C15.2605 19.0759 14.9375 19.5915 15.0431 20.1216C15.1401 20.6112 15.5701 20.9503 16.0508 20.9503C16.1173 20.9503 16.1845 20.9434 16.252 20.93L16.7276 20.8358C17.0728 20.7675 17.3588 20.5268 17.4863 20.1991L18.4316 17.7651C18.6956 17.0835 18.5012 16.3344 17.9653 15.8633C18.2653 15.3117 18.4874 14.738 18.6314 14.1435C19.2071 14.9036 19.5428 15.8431 19.5428 16.8333V21.6H6.17133C5.60322 21.6 5.14276 22.0604 5.14276 22.6286C5.14276 23.1967 5.60322 23.6571 6.17133 23.6571H19.8856C20.8309 23.6571 21.5999 22.8881 21.5999 21.9429V16.8333C21.5999 14.1308 19.8993 11.6791 17.3684 10.7318Z" fill="#00205B"/>
</svg>
